<svg xmlns="http://www.w3.org/2000/svg" xmlns:xlink="http://www.w3.org/1999/xlink" viewBox="0 0 7815.28 435.6"><defs><style>.cls-1{isolation:isolate;}.cls-2{fill:none;stroke:#8300a3;stroke-miterlimit:10;stroke-width:0.5px;}.cls-3{mix-blend-mode:screen;}.cls-4{fill:url(#Degradado_sin_nombre_12);}.cls-5{fill:url(#Degradado_sin_nombre_70);}.cls-6{fill:url(#Degradado_sin_nombre_12-2);}.cls-7{fill:url(#Degradado_sin_nombre_70-2);}.cls-8{fill:url(#Degradado_sin_nombre_12-3);}.cls-9{fill:url(#Degradado_sin_nombre_70-3);}.cls-10{fill:url(#Degradado_sin_nombre_12-4);}.cls-11{fill:url(#Degradado_sin_nombre_70-4);}.cls-12{fill:url(#Degradado_sin_nombre_12-5);}.cls-13{fill:url(#Degradado_sin_nombre_70-5);}.cls-14{fill:url(#Degradado_sin_nombre_12-6);}.cls-15{fill:url(#Degradado_sin_nombre_70-6);}.cls-16{fill:url(#Degradado_sin_nombre_12-7);}.cls-17{fill:url(#Degradado_sin_nombre_70-7);}.cls-18{fill:url(#Degradado_sin_nombre_12-8);}.cls-19{fill:url(#Degradado_sin_nombre_70-8);}.cls-20{fill:url(#Degradado_sin_nombre_12-9);}.cls-21{fill:url(#Degradado_sin_nombre_70-9);}.cls-22{fill:url(#Degradado_sin_nombre_12-10);}.cls-23{fill:url(#Degradado_sin_nombre_70-10);}.cls-24{fill:url(#Degradado_sin_nombre_12-11);}.cls-25{fill:url(#Degradado_sin_nombre_70-11);}.cls-26{fill:url(#Degradado_sin_nombre_12-12);}.cls-27{fill:url(#Degradado_sin_nombre_70-12);}.cls-28{fill:url(#Degradado_sin_nombre_12-13);}.cls-29{fill:url(#Degradado_sin_nombre_70-13);}.cls-30{fill:url(#Degradado_sin_nombre_12-14);}.cls-31{fill:url(#Degradado_sin_nombre_70-14);}.cls-32{fill:url(#Degradado_sin_nombre_12-15);}.cls-33{fill:url(#Degradado_sin_nombre_70-15);}.cls-34{fill:url(#Degradado_sin_nombre_12-16);}.cls-35{fill:url(#Degradado_sin_nombre_70-16);}.cls-36{fill:url(#Degradado_sin_nombre_12-17);}.cls-37{fill:url(#Degradado_sin_nombre_70-17);}.cls-38{fill:url(#Degradado_sin_nombre_12-18);}.cls-39{fill:url(#Degradado_sin_nombre_70-18);}.cls-40{fill:url(#Degradado_sin_nombre_12-19);}.cls-41{fill:url(#Degradado_sin_nombre_70-19);}</style><radialGradient id="Degradado_sin_nombre_12" cx="3859.94" cy="236.17" r="141.7" gradientTransform="translate(-2804.28 205.44) scale(1.73 0.03)" gradientUnits="userSpaceOnUse"><stop offset="0" stop-color="#ff0"/><stop offset="0.01" stop-color="#fff605" stop-opacity="0.96"/><stop offset="0.05" stop-color="#ffc920" stop-opacity="0.78"/><stop offset="0.09" stop-color="#ff9e39" stop-opacity="0.61"/><stop offset="0.14" stop-color="#ff794e" stop-opacity="0.47"/><stop offset="0.2" stop-color="#ff5961" stop-opacity="0.34"/><stop offset="0.25" stop-color="#ff3e71" stop-opacity="0.23"/><stop offset="0.32" stop-color="#ff287d" stop-opacity="0.15"/><stop offset="0.4" stop-color="#ff1787" stop-opacity="0.08"/><stop offset="0.49" stop-color="#ff0c8e" stop-opacity="0.03"/><stop offset="0.63" stop-color="#ff0592" stop-opacity="0.01"/><stop offset="1" stop-color="#ff0393" stop-opacity="0"/></radialGradient><radialGradient id="Degradado_sin_nombre_70" cx="3859.94" cy="236.17" r="104.76" gradientTransform="translate(-2804.28 205.44) scale(1.73 0.03)" gradientUnits="userSpaceOnUse"><stop offset="0" stop-color="#fff"/><stop offset="0" stop-color="#fff6fb" stop-opacity="0.96"/><stop offset="0.03" stop-color="#ffc9e8" stop-opacity="0.78"/><stop offset="0.06" stop-color="#ff9ed5" stop-opacity="0.61"/><stop offset="0.09" stop-color="#ff79c5" stop-opacity="0.47"/><stop offset="0.12" stop-color="#ff59b8" stop-opacity="0.34"/><stop offset="0.15" stop-color="#ff3eac" stop-opacity="0.23"/><stop offset="0.19" stop-color="#ff28a3" stop-opacity="0.15"/><stop offset="0.24" stop-color="#ff179c" stop-opacity="0.08"/><stop offset="0.3" stop-color="#ff0c97" stop-opacity="0.03"/><stop offset="0.38" stop-color="#ff0594" stop-opacity="0.01"/><stop offset="0.61" stop-color="#ff0393" stop-opacity="0"/></radialGradient><radialGradient id="Degradado_sin_nombre_12-2" cx="4003.73" cy="4099.66" r="141.7" xlink:href="#Degradado_sin_nombre_12"/><radialGradient id="Degradado_sin_nombre_70-2" cx="4003.73" cy="4099.66" r="104.76" xlink:href="#Degradado_sin_nombre_70"/><radialGradient id="Degradado_sin_nombre_12-3" cx="4055.22" cy="-2745.28" r="141.7" xlink:href="#Degradado_sin_nombre_12"/><radialGradient id="Degradado_sin_nombre_70-3" cx="4055.22" cy="-2745.28" r="104.76" xlink:href="#Degradado_sin_nombre_70"/><radialGradient id="Degradado_sin_nombre_12-4" cx="4049.08" cy="-1768.42" r="141.7" xlink:href="#Degradado_sin_nombre_12"/><radialGradient id="Degradado_sin_nombre_70-4" cx="4049.08" cy="-1768.42" r="104.76" xlink:href="#Degradado_sin_nombre_70"/><radialGradient id="Degradado_sin_nombre_12-5" cx="4055.62" cy="760.28" r="141.7" xlink:href="#Degradado_sin_nombre_12"/><radialGradient id="Degradado_sin_nombre_70-5" cx="4055.62" cy="760.28" r="104.76" xlink:href="#Degradado_sin_nombre_70"/><radialGradient id="Degradado_sin_nombre_12-6" cx="3916.74" cy="-2059.26" r="141.7" xlink:href="#Degradado_sin_nombre_12"/><radialGradient id="Degradado_sin_nombre_70-6" cx="3916.74" cy="-2059.26" r="104.76" xlink:href="#Degradado_sin_nombre_70"/><radialGradient id="Degradado_sin_nombre_12-7" cx="3697.69" cy="3329.7" r="141.7" xlink:href="#Degradado_sin_nombre_12"/><radialGradient id="Degradado_sin_nombre_70-7" cx="3697.69" cy="3329.7" r="104.76" xlink:href="#Degradado_sin_nombre_70"/><radialGradient id="Degradado_sin_nombre_12-8" cx="3760.64" cy="4099.66" r="141.7" xlink:href="#Degradado_sin_nombre_12"/><radialGradient id="Degradado_sin_nombre_70-8" cx="3760.64" cy="4099.66" r="104.76" xlink:href="#Degradado_sin_nombre_70"/><radialGradient id="Degradado_sin_nombre_12-9" cx="3744.91" cy="1329.81" r="141.7" xlink:href="#Degradado_sin_nombre_12"/><radialGradient id="Degradado_sin_nombre_70-9" cx="3744.91" cy="1329.81" r="104.76" xlink:href="#Degradado_sin_nombre_70"/><radialGradient id="Degradado_sin_nombre_12-10" cx="4014.66" cy="-249.61" r="141.62" gradientTransform="matrix(1.31, 0.84, -0.01, 0.02, -1125.6, -3124.11)" xlink:href="#Degradado_sin_nombre_12"/><radialGradient id="Degradado_sin_nombre_70-10" cx="4014.66" cy="-249.61" r="104.7" gradientTransform="matrix(1.31, 0.84, -0.01, 0.02, -1125.6, -3124.11)" xlink:href="#Degradado_sin_nombre_70"/><radialGradient id="Degradado_sin_nombre_12-11" cx="3687.78" cy="8931.11" r="141.58" gradientTransform="matrix(-1.51, 0.37, -0.01, -0.03, 9223.7, -973.84)" xlink:href="#Degradado_sin_nombre_12"/><radialGradient id="Degradado_sin_nombre_70-11" cx="3687.78" cy="8931.11" r="104.67" gradientTransform="matrix(-1.51, 0.37, -0.01, -0.03, 9223.7, -973.84)" xlink:href="#Degradado_sin_nombre_70"/><radialGradient id="Degradado_sin_nombre_12-12" cx="3704.53" cy="5934.78" r="141.47" gradientTransform="matrix(-1.42, 0.64, -0.01, -0.02, 8909.5, -1976.84)" xlink:href="#Degradado_sin_nombre_12"/><radialGradient id="Degradado_sin_nombre_70-12" cx="3704.53" cy="5934.78" r="104.59" gradientTransform="matrix(-1.42, 0.64, -0.01, -0.02, 8909.5, -1976.84)" xlink:href="#Degradado_sin_nombre_70"/><radialGradient id="Degradado_sin_nombre_12-13" cx="3576.51" cy="5140.98" r="141.68" gradientTransform="matrix(-1.32, 0.83, -0.01, -0.02, 8560.22, -2671.58)" xlink:href="#Degradado_sin_nombre_12"/><radialGradient id="Degradado_sin_nombre_70-13" cx="3576.51" cy="5140.97" r="104.75" gradientTransform="matrix(-1.32, 0.83, -0.01, -0.02, 8560.22, -2671.58)" xlink:href="#Degradado_sin_nombre_70"/><radialGradient id="Degradado_sin_nombre_12-14" cx="3997.38" cy="-3691.16" r="141.51" gradientTransform="matrix(1.51, 0.37, -0.01, 0.03, -1897.59, -1248.41)" xlink:href="#Degradado_sin_nombre_12"/><radialGradient id="Degradado_sin_nombre_70-14" cx="3997.38" cy="-3691.16" r="104.63" gradientTransform="matrix(1.51, 0.37, -0.01, 0.03, -1897.59, -1248.41)" xlink:href="#Degradado_sin_nombre_70"/><radialGradient id="Degradado_sin_nombre_12-15" cx="3967.79" cy="100.68" r="141.64" gradientTransform="matrix(0.78, 0.83, -0.01, 0.01, 940.09, -3077.42)" xlink:href="#Degradado_sin_nombre_12"/><radialGradient id="Degradado_sin_nombre_70-15" cx="3967.79" cy="100.68" r="104.72" gradientTransform="matrix(0, 1.13, -0.02, 0, 4019.02, -4294.29)" xlink:href="#Degradado_sin_nombre_70"/><radialGradient id="Degradado_sin_nombre_12-16" cx="3909.14" cy="6595.4" r="141.47" gradientTransform="matrix(-0.34, 1.08, -0.02, -0.01, 5297.28, -3951.1)" xlink:href="#Degradado_sin_nombre_12"/><radialGradient id="Degradado_sin_nombre_70-16" cx="3909.14" cy="6595.4" r="104.6" gradientTransform="matrix(-0.34, 1.08, -0.02, -0.01, 5297.28, -3951.1)" xlink:href="#Degradado_sin_nombre_70"/><radialGradient id="Degradado_sin_nombre_12-17" cx="3813.59" cy="4177.32" r="141.72" gradientTransform="matrix(0, 1.13, -0.02, 0, 4008.65, -4171.27)" xlink:href="#Degradado_sin_nombre_12"/><radialGradient id="Degradado_sin_nombre_70-17" cx="3813.59" cy="4177.32" r="104.78" gradientTransform="matrix(0.34, 1.08, -0.02, 0.01, 2712.33, -3997.7)" xlink:href="#Degradado_sin_nombre_70"/><radialGradient id="Degradado_sin_nombre_12-18" cx="3792.63" cy="-683.23" r="141.7" xlink:href="#Degradado_sin_nombre_12"/><radialGradient id="Degradado_sin_nombre_70-18" cx="3792.63" cy="-683.23" r="104.76" xlink:href="#Degradado_sin_nombre_70"/><radialGradient id="Degradado_sin_nombre_12-19" cx="3742.27" cy="-2918.03" r="141.7" xlink:href="#Degradado_sin_nombre_12"/><radialGradient id="Degradado_sin_nombre_70-19" cx="3742.27" cy="-2918.03" r="104.76" xlink:href="#Degradado_sin_nombre_70"/></defs><g class="cls-1"><g id="Layer_2" data-name="Layer 2"><g id="BACKGROUND_2" data-name="BACKGROUND 2"><line class="cls-2" x1="3532.64" y1="111.73" x2="0.02" y2="333.36"/><line class="cls-2" x1="3547.34" y1="111.73" x2="153.26" y2="333.36"/><line class="cls-2" x1="3562.05" y1="111.73" x2="306.5" y2="333.36"/><line class="cls-2" x1="3576.76" y1="111.73" x2="459.74" y2="333.36"/><line class="cls-2" x1="3591.46" y1="111.73" x2="612.98" y2="333.36"/><line class="cls-2" x1="3606.17" y1="111.73" x2="766.22" y2="333.36"/><line class="cls-2" x1="3620.87" y1="111.73" x2="919.46" y2="333.36"/><line class="cls-2" x1="3635.58" y1="111.73" x2="1072.7" y2="333.36"/><line class="cls-2" x1="3650.29" y1="111.73" x2="1225.94" y2="333.36"/><line class="cls-2" x1="3664.99" y1="111.73" x2="1379.18" y2="333.36"/><line class="cls-2" x1="3679.7" y1="111.73" x2="1532.42" y2="333.36"/><line class="cls-2" x1="3694.4" y1="111.73" x2="1685.66" y2="333.36"/><line class="cls-2" x1="3709.11" y1="111.73" x2="1838.9" y2="333.36"/><line class="cls-2" x1="3723.81" y1="111.73" x2="1992.14" y2="333.36"/><line class="cls-2" x1="3738.52" y1="111.73" x2="2145.38" y2="333.36"/><line class="cls-2" x1="3753.23" y1="111.73" x2="2298.62" y2="333.36"/><line class="cls-2" x1="3767.93" y1="111.73" x2="2451.86" y2="333.36"/><line class="cls-2" x1="3782.64" y1="111.73" x2="2605.1" y2="333.36"/><line class="cls-2" x1="3797.34" y1="111.73" x2="2758.34" y2="333.36"/><line class="cls-2" x1="3812.05" y1="111.73" x2="2911.58" y2="333.36"/><line class="cls-2" x1="3826.76" y1="111.73" x2="3064.82" y2="333.36"/><line class="cls-2" x1="3841.46" y1="111.73" x2="3218.06" y2="333.36"/><line class="cls-2" x1="3856.17" y1="111.73" x2="3371.3" y2="333.36"/><line class="cls-2" x1="3870.87" y1="111.73" x2="3524.54" y2="333.36"/><line class="cls-2" x1="3885.58" y1="111.73" x2="3677.78" y2="333.36"/><line class="cls-2" x1="3900.29" y1="111.73" x2="3831.02" y2="333.36"/><line class="cls-2" x1="3914.99" y1="111.73" x2="3984.26" y2="333.36"/><line class="cls-2" x1="3929.7" y1="111.73" x2="4137.5" y2="333.36"/><line class="cls-2" x1="3944.4" y1="111.73" x2="4290.74" y2="333.36"/><line class="cls-2" x1="3959.11" y1="111.73" x2="4443.98" y2="333.36"/><line class="cls-2" x1="3973.81" y1="111.73" x2="4597.22" y2="333.36"/><line class="cls-2" x1="3988.52" y1="111.73" x2="4750.46" y2="333.36"/><line class="cls-2" x1="4003.23" y1="111.73" x2="4903.7" y2="333.36"/><line class="cls-2" x1="4017.93" y1="111.73" x2="5056.94" y2="333.36"/><line class="cls-2" x1="4032.64" y1="111.73" x2="5210.18" y2="333.36"/><line class="cls-2" x1="4047.34" y1="111.73" x2="5363.42" y2="333.36"/><line class="cls-2" x1="4062.05" y1="111.73" x2="5516.66" y2="333.36"/><line class="cls-2" x1="4076.76" y1="111.73" x2="5669.9" y2="333.36"/><line class="cls-2" x1="4091.46" y1="111.73" x2="5823.14" y2="333.36"/><line class="cls-2" x1="4106.17" y1="111.73" x2="5976.38" y2="333.36"/><line class="cls-2" x1="4120.87" y1="111.73" x2="6129.62" y2="333.36"/><line class="cls-2" x1="4135.58" y1="111.73" x2="6282.86" y2="333.36"/><line class="cls-2" x1="4150.29" y1="111.73" x2="6436.1" y2="333.36"/><line class="cls-2" x1="4164.99" y1="111.73" x2="6589.34" y2="333.36"/><line class="cls-2" x1="4179.7" y1="111.73" x2="6742.58" y2="333.36"/><line class="cls-2" x1="4194.4" y1="111.73" x2="6895.82" y2="333.36"/><line class="cls-2" x1="4209.11" y1="111.73" x2="7049.06" y2="333.36"/><line class="cls-2" x1="4223.81" y1="111.73" x2="7202.3" y2="333.36"/><line class="cls-2" x1="4238.52" y1="111.73" x2="7355.54" y2="333.36"/><line class="cls-2" x1="4253.23" y1="111.73" x2="7508.78" y2="333.36"/><line class="cls-2" x1="4267.93" y1="111.73" x2="7662.02" y2="333.36"/><line class="cls-2" x1="4282.64" y1="111.73" x2="7815.26" y2="333.36"/><line class="cls-2" x1="3532.64" y1="111.73" x2="4282.64" y2="111.73"/><line class="cls-2" x1="3532.64" y1="111.79" x2="4282.64" y2="111.79"/><line class="cls-2" x1="3532.64" y1="112.01" x2="4282.64" y2="112.01"/><line class="cls-2" x1="3532.64" y1="112.44" x2="4282.64" y2="112.44"/><line class="cls-2" x1="3532.64" y1="113.13" x2="4282.64" y2="113.13"/><line class="cls-2" x1="3532.64" y1="114.13" x2="4282.64" y2="114.13"/><line class="cls-2" x1="3532.64" y1="115.48" x2="4282.64" y2="115.48"/><line class="cls-2" x1="3532.64" y1="117.24" x2="4282.64" y2="117.24"/><line class="cls-2" x1="3532.64" y1="119.45" x2="4282.64" y2="119.45"/><line class="cls-2" x1="3532.64" y1="122.16" x2="4282.64" y2="122.16"/><line class="cls-2" x1="3532.64" y1="125.42" x2="4282.64" y2="125.42"/><line class="cls-2" x1="3532.64" y1="129.28" x2="4282.64" y2="129.28"/><line class="cls-2" x1="3532.64" y1="133.79" x2="4282.64" y2="133.79"/><line class="cls-2" x1="3532.64" y1="138.99" x2="4282.64" y2="138.99"/><line class="cls-2" x1="3532.64" y1="144.95" x2="4282.64" y2="144.95"/><line class="cls-2" x1="3532.64" y1="151.69" x2="4282.64" y2="151.69"/><line class="cls-2" x1="3532.64" y1="159.28" x2="4282.64" y2="159.28"/><line class="cls-2" x1="3532.64" y1="167.77" x2="4282.64" y2="167.77"/><line class="cls-2" x1="3532.64" y1="177.19" x2="4282.64" y2="177.19"/><line class="cls-2" x1="3532.64" y1="187.61" x2="4282.64" y2="187.61"/><line class="cls-2" x1="3532.64" y1="199.06" x2="4282.64" y2="199.06"/><line class="cls-2" x1="3532.64" y1="211.6" x2="4282.64" y2="211.6"/><line class="cls-2" x1="3532.64" y1="225.28" x2="4282.64" y2="225.28"/><line class="cls-2" x1="3532.64" y1="240.15" x2="4282.64" y2="240.15"/><line class="cls-2" x1="3532.64" y1="256.25" x2="4282.64" y2="256.25"/><line class="cls-2" x1="3532.64" y1="273.63" x2="4282.64" y2="273.63"/><line class="cls-2" x1="3532.64" y1="292.34" x2="4282.64" y2="292.34"/><line class="cls-2" x1="3532.64" y1="312.44" x2="4282.64" y2="312.44"/><line class="cls-2" x1="3532.64" y1="333.97" x2="4282.64" y2="333.97"/><line class="cls-2" x1="3532.64" y1="356.97" x2="4282.64" y2="356.97"/><line class="cls-2" x1="3532.64" y1="381.5" x2="4282.64" y2="381.5"/><line class="cls-2" x1="3532.64" y1="407.61" x2="4282.64" y2="407.61"/><line class="cls-2" x1="3532.64" y1="435.35" x2="4282.64" y2="435.35"/><g class="cls-3"><ellipse class="cls-4" cx="3869.17" cy="211.6" rx="244.8" ry="3.7"/><ellipse class="cls-5" cx="3869.17" cy="211.6" rx="180.99" ry="2.74"/></g><g class="cls-3"><ellipse class="cls-6" cx="4117.76" cy="312.44" rx="244.8" ry="3.7"/><ellipse class="cls-7" cx="4117.76" cy="312.44" rx="180.99" ry="2.74"/></g><g class="cls-3"><ellipse class="cls-8" cx="4206.79" cy="133.79" rx="244.8" ry="3.7"/><ellipse class="cls-9" cx="4206.79" cy="133.79" rx="180.99" ry="2.74"/></g><g class="cls-3"><ellipse class="cls-10" cx="4196.17" cy="159.28" rx="244.8" ry="3.7"/><ellipse class="cls-11" cx="4196.17" cy="159.28" rx="180.99" ry="2.74"/></g><g class="cls-3"><ellipse class="cls-12" cx="4207.48" cy="225.28" rx="244.8" ry="3.7"/><ellipse class="cls-13" cx="4207.48" cy="225.28" rx="180.99" ry="2.74"/></g><g class="cls-3"><ellipse class="cls-14" cx="3967.38" cy="151.69" rx="244.8" ry="3.7"/><ellipse class="cls-15" cx="3967.38" cy="151.69" rx="180.99" ry="2.74"/></g><g class="cls-3"><ellipse class="cls-16" cx="3588.66" cy="292.34" rx="244.8" ry="3.7"/><ellipse class="cls-17" cx="3588.66" cy="292.34" rx="180.99" ry="2.74"/></g><g class="cls-3"><ellipse class="cls-18" cx="3697.49" cy="312.44" rx="244.8" ry="3.7"/><ellipse class="cls-19" cx="3697.49" cy="312.44" rx="180.99" ry="2.74"/></g><g class="cls-3"><ellipse class="cls-20" cx="3670.29" cy="240.15" rx="244.8" ry="3.7"/><ellipse class="cls-21" cx="3670.29" cy="240.15" rx="180.99" ry="2.74"/></g><g class="cls-3"><path class="cls-22" d="M4328,357.09c-1.1,1.72-85.12-50.07-187.67-115.67s-184.79-120.18-183.69-121.91,85.13,50.07,187.68,115.67S4329.12,355.36,4328,357.09Z"/><path class="cls-23" d="M4279.62,326.12c-.81,1.27-62.94-37-138.75-85.52s-136.62-88.85-135.81-90.12,62.94,37,138.76,85.51S4280.44,324.85,4279.62,326.12Z"/></g><g class="cls-3"><path class="cls-24" d="M3378.32,218.08c-.49-2,95-27.08,213.21-56.05s214.49-50.85,215-48.86-95,27.08-213.21,56.05S3378.81,220.07,3378.32,218.08Z"/><path class="cls-25" d="M3434.13,204.41c-.36-1.47,70.21-20,157.63-41.44s158.58-37.59,158.94-36.13-70.22,20-157.64,41.44S3434.49,205.88,3434.13,204.41Z"/></g><g class="cls-3"><path class="cls-26" d="M3380.66,326.68c-.83-1.87,88.57-43.68,199.69-93.4s201.88-88.51,202.72-86.64-88.57,43.68-199.69,93.4S3381.5,328.55,3380.66,326.68Z"/><path class="cls-27" d="M3433.11,303.21c-.62-1.37,65.48-32.29,147.64-69S3730,168.72,3730.62,170.1s-65.48,32.3-147.64,69.06S3433.73,304.59,3433.11,303.21Z"/></g><g class="cls-3"><path class="cls-28" d="M3586.07,291.54c-1.09-1.73,81.62-55.59,184.74-120.3s187.58-115.77,188.67-114-81.62,55.59-184.74,120.3S3587.15,293.27,3586.07,291.54Z"/><path class="cls-29" d="M3634.74,261c-.81-1.28,60.34-41.1,136.58-88.95S3910,86.47,3910.81,87.75s-60.35,41.1-136.58,88.94S3635.54,262.28,3634.74,261Z"/></g><g class="cls-3"><path class="cls-30" d="M4380.49,204.56c-.49,2-96.69-20.09-214.87-49.32S3952,100.73,3952.53,98.74s96.69,20.1,214.87,49.32S4381,202.58,4380.49,204.56Z"/><path class="cls-31" d="M4324.72,190.77c-.37,1.47-71.49-14.86-158.86-36.46S4008,114,4008.31,112.53s71.49,14.86,158.86,36.47S4325.08,189.3,4324.72,190.77Z"/></g><g class="cls-3"><path class="cls-32" d="M4127.13,322c-1.1,1-51.18-50.55-111.85-115.21s-109-117.93-107.86-119S3958.6,138.33,4019.27,203,4128.23,320.93,4127.13,322Z"/><ellipse class="cls-33" cx="4017.27" cy="204.87" rx="2.02" ry="118.71" transform="translate(947.43 2804.2) rotate(-43.18)"/></g><g class="cls-3"><path class="cls-34" d="M3811.39,397.45c-1.45-.45,18.73-69.46,45.06-154.13s48.84-153,50.28-152.51-18.73,69.46-45.06,154.13S3812.83,397.9,3811.39,397.45Z"/><path class="cls-35" d="M3823.81,357.48c-1.06-.33,13.85-51.35,33.32-114s36.11-113.08,37.17-112.75-13.84,51.35-33.31,114S3824.88,357.82,3823.81,357.48Z"/></g><g class="cls-3"><ellipse class="cls-36" cx="3927.9" cy="153.22" rx="2.74" ry="160.56" transform="translate(133.78 1181.08) rotate(-17.39)"/><path class="cls-37" d="M3963.38,266.5c-1.07.33-17.82-50.11-37.41-112.68s-34.62-113.54-33.56-113.88,17.82,50.11,37.42,112.68S3964.45,266.16,3963.38,266.5Z"/></g><g class="cls-3"><ellipse class="cls-38" cx="3752.81" cy="187.61" rx="244.8" ry="3.7"/><ellipse class="cls-39" cx="3752.81" cy="187.61" rx="180.99" ry="2.74"/></g><g class="cls-3"><ellipse class="cls-40" cx="3665.73" cy="129.28" rx="244.8" ry="3.7"/><ellipse class="cls-41" cx="3665.73" cy="129.28" rx="180.99" ry="2.74"/></g></g></g></g></svg>