<svg xmlns="http://www.w3.org/2000/svg" xmlns:xlink="http://www.w3.org/1999/xlink" viewBox="0 0 213.16 213.15"><defs><style>.cls-1{fill:url(#New_Gradient_Swatch_2);}.cls-2{fill:url(#New_Gradient_Swatch_2-2);}.cls-3{fill:url(#New_Gradient_Swatch_2-3);}.cls-4{fill:url(#New_Gradient_Swatch_2-4);}.cls-5{fill:url(#New_Gradient_Swatch_2-5);}.cls-6{fill:url(#New_Gradient_Swatch_2-6);}.cls-7{fill:url(#New_Gradient_Swatch_2-7);}.cls-8{fill:url(#New_Gradient_Swatch_2-8);}.cls-9{fill:url(#New_Gradient_Swatch_2-9);}.cls-10{fill:url(#New_Gradient_Swatch_2-10);}.cls-11{fill:url(#New_Gradient_Swatch_2-11);}.cls-12{fill:url(#New_Gradient_Swatch_2-12);}.cls-13{fill:url(#New_Gradient_Swatch_2-13);}.cls-14{fill:url(#New_Gradient_Swatch_2-14);}.cls-15{fill:url(#New_Gradient_Swatch_2-15);}.cls-16{fill:url(#New_Gradient_Swatch_2-16);}.cls-17{fill:url(#New_Gradient_Swatch_2-17);}.cls-18{fill:url(#New_Gradient_Swatch_2-18);}.cls-19{fill:url(#New_Gradient_Swatch_2-19);}.cls-20{fill:url(#New_Gradient_Swatch_2-20);}.cls-21{fill:url(#New_Gradient_Swatch_2-21);}.cls-22{fill:url(#New_Gradient_Swatch_2-22);}.cls-23{fill:url(#New_Gradient_Swatch_2-23);}.cls-24{fill:url(#New_Gradient_Swatch_2-24);}.cls-25{fill:url(#New_Gradient_Swatch_2-25);}.cls-26{fill:url(#New_Gradient_Swatch_2-26);}</style><linearGradient id="New_Gradient_Swatch_2" x1="95.44" y1="106.57" x2="117.72" y2="106.57" gradientUnits="userSpaceOnUse"><stop offset="0" stop-color="#3ddeed"/><stop offset="1" stop-color="#cb00dd"/></linearGradient><linearGradient id="New_Gradient_Swatch_2-2" x1="93.82" y1="106.57" x2="119.34" y2="106.57" xlink:href="#New_Gradient_Swatch_2"/><linearGradient id="New_Gradient_Swatch_2-3" x1="92.12" y1="106.57" x2="121.04" y2="106.57" xlink:href="#New_Gradient_Swatch_2"/><linearGradient id="New_Gradient_Swatch_2-4" x1="90.32" y1="106.57" x2="122.83" y2="106.57" xlink:href="#New_Gradient_Swatch_2"/><linearGradient id="New_Gradient_Swatch_2-5" x1="88.45" y1="106.57" x2="124.71" y2="106.57" xlink:href="#New_Gradient_Swatch_2"/><linearGradient id="New_Gradient_Swatch_2-6" x1="86.53" y1="106.57" x2="126.63" y2="106.57" xlink:href="#New_Gradient_Swatch_2"/><linearGradient id="New_Gradient_Swatch_2-7" x1="84.56" y1="106.57" x2="128.6" y2="106.57" xlink:href="#New_Gradient_Swatch_2"/><linearGradient id="New_Gradient_Swatch_2-8" x1="82.58" y1="106.57" x2="130.58" y2="106.57" xlink:href="#New_Gradient_Swatch_2"/><linearGradient id="New_Gradient_Swatch_2-9" x1="80.62" y1="106.57" x2="132.54" y2="106.57" xlink:href="#New_Gradient_Swatch_2"/><linearGradient id="New_Gradient_Swatch_2-10" x1="78.71" y1="106.57" x2="134.45" y2="106.57" xlink:href="#New_Gradient_Swatch_2"/><linearGradient id="New_Gradient_Swatch_2-11" x1="76.88" y1="106.57" x2="136.28" y2="106.57" xlink:href="#New_Gradient_Swatch_2"/><linearGradient id="New_Gradient_Swatch_2-12" x1="75.19" y1="106.57" x2="137.97" y2="106.57" xlink:href="#New_Gradient_Swatch_2"/><linearGradient id="New_Gradient_Swatch_2-13" x1="73.68" y1="106.57" x2="139.48" y2="106.57" xlink:href="#New_Gradient_Swatch_2"/><linearGradient id="New_Gradient_Swatch_2-14" x1="72.41" y1="106.57" x2="140.75" y2="106.57" xlink:href="#New_Gradient_Swatch_2"/><linearGradient id="New_Gradient_Swatch_2-15" x1="71.44" y1="106.57" x2="141.72" y2="106.57" xlink:href="#New_Gradient_Swatch_2"/><linearGradient id="New_Gradient_Swatch_2-16" x1="70.85" y1="106.57" x2="142.31" y2="106.57" xlink:href="#New_Gradient_Swatch_2"/><linearGradient id="New_Gradient_Swatch_2-17" x1="70.71" y1="106.57" x2="142.45" y2="106.57" xlink:href="#New_Gradient_Swatch_2"/><linearGradient id="New_Gradient_Swatch_2-18" x1="64.42" y1="106.57" x2="148.74" y2="106.57" xlink:href="#New_Gradient_Swatch_2"/><linearGradient id="New_Gradient_Swatch_2-19" x1="57.65" y1="106.57" x2="155.51" y2="106.57" xlink:href="#New_Gradient_Swatch_2"/><linearGradient id="New_Gradient_Swatch_2-20" x1="50.42" y1="106.57" x2="162.74" y2="106.57" xlink:href="#New_Gradient_Swatch_2"/><linearGradient id="New_Gradient_Swatch_2-21" x1="42.76" y1="106.57" x2="170.4" y2="106.57" xlink:href="#New_Gradient_Swatch_2"/><linearGradient id="New_Gradient_Swatch_2-22" x1="34.71" y1="106.57" x2="178.45" y2="106.57" xlink:href="#New_Gradient_Swatch_2"/><linearGradient id="New_Gradient_Swatch_2-23" x1="26.32" y1="106.57" x2="186.84" y2="106.57" xlink:href="#New_Gradient_Swatch_2"/><linearGradient id="New_Gradient_Swatch_2-24" x1="17.68" y1="106.57" x2="195.48" y2="106.57" xlink:href="#New_Gradient_Swatch_2"/><linearGradient id="New_Gradient_Swatch_2-25" x1="8.87" y1="106.57" x2="204.29" y2="106.57" xlink:href="#New_Gradient_Swatch_2"/><linearGradient id="New_Gradient_Swatch_2-26" x1="0" y1="106.58" x2="213.16" y2="106.58" xlink:href="#New_Gradient_Swatch_2"/></defs><g id="Layer_2" data-name="Layer 2"><g id="object"><path class="cls-1" d="M114.1,117.71h0l-18.3-3.23a.5.5,0,0,1-.25-.15.57.57,0,0,1-.06-.28l3.23-18.31a.4.4,0,0,1,.16-.24.45.45,0,0,1,.28-.07h0l18.3,3.23a.38.38,0,0,1,.31.44l-3.23,18.3a.5.5,0,0,1-.15.25A.48.48,0,0,1,114.1,117.71Zm-18-3.79,17.85,3.15,3.15-17.85L99.23,96.07Z"/><path class="cls-2" d="M113.72,119.33h-.1l-19.51-5.23a.38.38,0,0,1-.27-.47L99.07,94.1a.46.46,0,0,1,.18-.23.48.48,0,0,1,.29,0h0l19.51,5.23a.37.37,0,0,1,.27.47L114.09,119a.46.46,0,0,1-.17.24A.46.46,0,0,1,113.72,119.33Zm-19.24-5.77,19.09,5.11,5.11-19.08L99.6,94.47Zm4.9-19.14Z"/><path class="cls-3" d="M113.13,121l-.12,0L92.37,113.5a.6.6,0,0,1-.22-.2.39.39,0,0,1,0-.3l7.51-20.63a.56.56,0,0,1,.2-.23.51.51,0,0,1,.3,0l20.64,7.51a.6.6,0,0,1,.22.2.51.51,0,0,1,0,.3l-7.51,20.64a.53.53,0,0,1-.2.22A.45.45,0,0,1,113.13,121Zm-20.35-8L113,120.37l7.37-20.23-20.23-7.36Z"/><path class="cls-4" d="M112.36,122.82a.52.52,0,0,1-.18,0L90.55,112.71a.4.4,0,0,1-.19-.53l10.09-21.64a.47.47,0,0,1,.22-.2.42.42,0,0,1,.31,0l21.63,10.09a.56.56,0,0,1,.21.22.54.54,0,0,1,0,.31L112.72,122.6a.58.58,0,0,1-.23.21ZM91,112.24l21.25,9.92,9.91-21.26L100.91,91Z"/><path class="cls-5" d="M111.33,124.7a.46.46,0,0,1-.2,0l-22.47-13a.39.39,0,0,1-.15-.55l13-22.47a.41.41,0,0,1,.56-.15l22.46,13a.4.4,0,0,1,.15.56l-13,22.47a.41.41,0,0,1-.25.19Zm-22.2-13.45L111.26,124,124,101.9,101.91,89.12ZM124.2,102h0ZM101.73,89Z"/><path class="cls-6" d="M110,126.63a.43.43,0,0,1-.24-.08L86.7,110.38a.44.44,0,0,1-.17-.27.42.42,0,0,1,.07-.31l16.18-23.1a.42.42,0,0,1,.58-.11h0l23.1,16.18a.42.42,0,0,1,.1.58l-16.18,23.1a.41.41,0,0,1-.27.17Zm.11-.58ZM87.21,110l22.79,16,16-22.78-22.79-16ZM103,87.09Z"/><path class="cls-7" d="M108.47,128.59a.39.39,0,0,1-.27-.1l-23.49-19.7a.48.48,0,0,1-.15-.29.43.43,0,0,1,.1-.31l19.7-23.48a.4.4,0,0,1,.29-.15.45.45,0,0,1,.32.09l23.48,19.71a.43.43,0,0,1,.15.29.45.45,0,0,1-.1.31l-19.7,23.48A.44.44,0,0,1,108.47,128.59ZM85.24,108.44l23.21,19.47,19.47-23.2L104.71,85.24Zm42.82-3.62Zm-23.49-19.7h0Z"/><path class="cls-8" d="M106.58,130.57a.44.44,0,0,1-.31-.13L82.71,106.88a.44.44,0,0,1-.13-.31.48.48,0,0,1,.13-.31L106.27,82.7a.46.46,0,0,1,.62,0l23.56,23.56a.48.48,0,0,1,.13.31.44.44,0,0,1-.13.31l-23.56,23.56A.44.44,0,0,1,106.58,130.57Zm-23.32-24,23.32,23.32,23.32-23.32L106.58,83.25Zm46.76.12h0Z"/><path class="cls-9" d="M104.35,132.53h0a.43.43,0,0,1-.3-.16L80.73,104.63a.44.44,0,0,1,0-.63l27.74-23.28a.47.47,0,0,1,.33-.11.52.52,0,0,1,.31.16l23.28,27.75a.46.46,0,0,1-.06.63l-27.74,23.28A.45.45,0,0,1,104.35,132.53ZM81.29,104.36l23.08,27.5,27.5-23.08L108.79,81.29ZM132,108.91h0ZM108.69,81.16Z"/><path class="cls-10" d="M101.75,134.45h-.08a.46.46,0,0,1-.3-.19L78.79,102a.46.46,0,0,1-.08-.34.51.51,0,0,1,.19-.3l32.25-22.58a.47.47,0,0,1,.64.12l22.58,32.24a.47.47,0,0,1,.08.35.44.44,0,0,1-.19.29L102,134.36A.43.43,0,0,1,101.75,134.45ZM79.37,101.77l22.41,32,32-22.41-22.41-32Zm54.5,9.72h0ZM111.29,79.24Z"/><path class="cls-11" d="M98.75,136.27h-.12a.48.48,0,0,1-.29-.23L76.94,99a.48.48,0,0,1,.18-.65l37.05-21.39a.46.46,0,0,1,.36,0,.44.44,0,0,1,.29.22l21.4,37.06a.47.47,0,0,1-.18.64l-37,21.4A.53.53,0,0,1,98.75,136.27ZM77.54,98.79,98.8,135.62l36.82-21.27L114.36,77.53Zm58.15,15.68h0ZM114.3,77.41Zm0,0Z"/><path class="cls-12" d="M95.33,138l-.17,0a.49.49,0,0,1-.27-.26L75.23,95.53a.5.5,0,0,1,.24-.65l42.15-19.65a.46.46,0,0,1,.38,0,.44.44,0,0,1,.27.25l19.66,42.15a.49.49,0,0,1-.24.65L95.54,137.92A.54.54,0,0,1,95.33,138ZM75.83,95.38l19.56,41.94,41.94-19.56L117.77,75.83Zm61.55,22.49ZM117.72,75.72Z"/><path class="cls-13" d="M91.47,139.48a.54.54,0,0,1-.21,0,.5.5,0,0,1-.26-.29L73.71,91.64A.49.49,0,0,1,74,91l47.5-17.29a.51.51,0,0,1,.65.3l17.29,47.51a.49.49,0,0,1-.3.64l-47.5,17.29A.39.39,0,0,1,91.47,139.48ZM74.31,91.53l17.22,47.31,47.32-17.22L121.63,74.31Zm64.57,30.18h0Zm-17.29-47.5Z"/><path class="cls-14" d="M87.15,140.75a.52.52,0,0,1-.5-.39L72.43,87.28a.52.52,0,0,1,.37-.64l53.07-14.22a.51.51,0,0,1,.4,0,.49.49,0,0,1,.24.32l14.23,53.07a.55.55,0,0,1-.37.65L87.29,140.73ZM73,87.2l14.18,52.92,52.92-14.18L126,73ZM140.15,126h0Z"/><path class="cls-15" d="M82.36,141.71a.55.55,0,0,1-.54-.45L71.45,82.44a.56.56,0,0,1,.44-.63l58.82-10.37a.55.55,0,0,1,.63.44h0l10.37,58.82a.55.55,0,0,1-.09.41.51.51,0,0,1-.35.22L82.45,141.7ZM72.06,82.4l10.35,58.69,58.69-10.35L130.75,72.05Z"/><path class="cls-16" d="M77.07,142.3a.53.53,0,0,1-.36-.13.57.57,0,0,1-.2-.38L70.85,77.11a.58.58,0,0,1,.52-.61L136,70.85a.55.55,0,0,1,.61.51L142.31,136a.57.57,0,0,1-.51.61L77.12,142.3Zm59-70.85L71.42,77.11l5.7,64.62L141.74,136Z"/><path class="cls-17" d="M141.86,142.44H71.3a.58.58,0,0,1-.59-.58V71.29a.59.59,0,0,1,.59-.59h70.56a.59.59,0,0,1,.59.59v70.57A.58.58,0,0,1,141.86,142.44ZM71.3,71.31l0,70.55,70.54,0,0-70.52Z"/><path class="cls-18" d="M141.44,148.73h-.05L65,142a.61.61,0,0,1-.56-.66L71.11,65a.61.61,0,0,1,.66-.55l76.41,6.68a.61.61,0,0,1,.56.66h0l-6.69,76.41A.61.61,0,0,1,141.44,148.73ZM71.72,65,65,141.44l76.41,6.68,6.69-76.41h0Zm76.71,6.72h0Z"/><path class="cls-19" d="M140.4,155.5h-.12L58.18,141a.6.6,0,0,1-.41-.26.62.62,0,0,1-.11-.47L72.14,58.17a.64.64,0,0,1,.74-.52L155,72.13a.6.6,0,0,1,.41.26.63.63,0,0,1,.11.48L141,155a.65.65,0,0,1-.26.42A.66.66,0,0,1,140.4,155.5ZM72.77,58.25,58.26,140.38l82.13,14.51L154.9,72.76h0s0,0,0,0Z"/><path class="cls-20" d="M138.62,162.73a.5.5,0,0,1-.17,0L50.91,139.26a.69.69,0,0,1-.47-.82L73.9,50.91a.62.62,0,0,1,.31-.41.67.67,0,0,1,.5-.07l87.54,23.46a.69.69,0,0,1,.4.31.67.67,0,0,1,.07.5l-23.46,87.54a.62.62,0,0,1-.31.4A.63.63,0,0,1,138.62,162.73ZM74.54,51a.08.08,0,0,0-.06,0L51,138.6s0,.06,0,.07l87.54,23.45s.06,0,.07,0l23.45-87.53s0-.07,0-.07L74.56,51Z"/><path class="cls-21" d="M136,170.4a.69.69,0,0,1-.24-.05L43.22,136.66a.69.69,0,0,1-.42-.89L76.49,43.21a.68.68,0,0,1,.36-.4.75.75,0,0,1,.53,0l92.56,33.69a.69.69,0,0,1,.42.89h0l-33.69,92.57A.7.7,0,0,1,136,170.4Zm-58.87-127a.09.09,0,0,0-.09.06L43.37,136a.09.09,0,0,0,.05.11L136,169.78a.08.08,0,0,0,.11-.05l33.69-92.56h0a.1.1,0,0,0,0-.12L77.17,43.36Zm92.93,33.91Z"/><path class="cls-22" d="M132.47,178.45a.82.82,0,0,1-.3-.07l-97-45.25a.73.73,0,0,1-.36-1L80,35.12a.74.74,0,0,1,1-.35L178,80a.7.7,0,0,1,.38.41.73.73,0,0,1,0,.56l-45.25,97A.74.74,0,0,1,132.47,178.45ZM80.69,35.31a.13.13,0,0,0-.12.07l-45.24,97a.12.12,0,0,0,.06.17l97,45.25a.13.13,0,0,0,.17-.06l45.25-97h0a.14.14,0,0,0-.06-.16l-97-45.25Z"/><path class="cls-23" d="M127.88,186.83a.87.87,0,0,1-.39-.1L26.71,128.54a.77.77,0,0,1-.28-1L84.62,26.7a.76.76,0,0,1,.46-.36.81.81,0,0,1,.59.08L186.45,84.61a.75.75,0,0,1,.36.46.76.76,0,0,1-.08.59L128.54,186.44a.72.72,0,0,1-.46.36ZM85.29,26.93a.2.2,0,0,0-.15.07L27,127.79A.16.16,0,0,0,27,128L127.8,186.2a.17.17,0,0,0,.12,0,.2.2,0,0,0,.1-.08L186.21,85.35h0a.13.13,0,0,0,0-.12.17.17,0,0,0-.07-.1L85.36,26.94Z"/><path class="cls-24" d="M122.11,195.47a.79.79,0,0,1-.46-.15L18,122.77a.83.83,0,0,1-.34-.52.87.87,0,0,1,.14-.61L90.39,18a.74.74,0,0,1,.52-.33.8.8,0,0,1,.6.13L195.13,90.38a.79.79,0,0,1,.2,1.12L122.78,195.13a.85.85,0,0,1-.53.33ZM91.05,18.28h0a.16.16,0,0,0-.13.08L18.33,122a.2.2,0,0,0,0,.15.2.2,0,0,0,.09.13L122,194.83a.19.19,0,0,0,.15,0,.22.22,0,0,0,.13-.08L194.83,91.16h0a.19.19,0,0,0,0-.16.22.22,0,0,0-.09-.13L91.16,18.32A.15.15,0,0,0,91.05,18.28Z"/><path class="cls-25" d="M115.05,204.28a.82.82,0,0,1-.54-.2L9.18,115.7a.85.85,0,0,1-.11-1.2L97.45,9.17a.86.86,0,0,1,1.2-.11L204,97.45a.85.85,0,0,1,.11,1.2h0L115.71,204a.87.87,0,0,1-.58.3ZM98.11,9.47a.25.25,0,0,0-.19.09L9.54,114.89a.23.23,0,0,0,0,.34L114.9,203.62a.23.23,0,0,0,.18,0,.21.21,0,0,0,.16-.08L203.62,98.26a.24.24,0,0,0,0-.35L98.26,9.53A.22.22,0,0,0,98.11,9.47Zm105.75,89Z"/><path class="cls-26" d="M106.58,213.15a.9.9,0,0,1-.64-.26L.26,107.21a.9.9,0,0,1,0-1.27L105.94.26a.91.91,0,0,1,1.28,0L212.9,105.94a.9.9,0,0,1,0,1.27l-.22-.22.22.22L107.22,212.89A.9.9,0,0,1,106.58,213.15ZM106.58.6a.32.32,0,0,0-.21.08L.69,106.36a.32.32,0,0,0,0,.42L106.37,212.46a.31.31,0,0,0,.42,0L212.47,106.78a.32.32,0,0,0,0-.42L106.79.68A.32.32,0,0,0,106.58.6Z"/></g></g></svg>